<?xml version="1.0" standalone="no"?>
<!DOCTYPE svg PUBLIC "-//W3C//DTD SVG 20010904//EN"
 "http://www.w3.org/TR/2001/REC-SVG-20010904/DTD/svg10.dtd">
<svg version="1.0" xmlns="http://www.w3.org/2000/svg"
 width="73.000000pt" height="74.000000pt" viewBox="0 0 73.000000 74.000000"
 preserveAspectRatio="xMidYMid meet">

<g transform="translate(0.000000,74.000000) scale(0.100000,-0.100000)"
fill="#000000" stroke="none">
<path d="M335 723 c-24 -23 -35 -58 -35 -107 l0 -43 -147 -85 c-81 -47 -149
-90 -151 -96 -2 -6 7 -21 18 -32 22 -22 48 -23 118 -4 16 5 22 2 22 -10 0 -9
7 -16 15 -16 8 0 15 9 15 20 0 11 7 20 15 20 8 0 15 -7 15 -15 0 -8 7 -15 15
-15 8 0 15 7 15 15 0 10 10 15 29 15 l28 0 7 -105 7 -105 -45 -54 c-46 -53
-59 -83 -32 -73 7 3 34 8 58 12 44 7 46 6 53 -22 l7 -28 14 28 c16 29 37 33
94 17 19 -5 38 -6 42 -2 4 4 -14 33 -42 64 l-50 56 0 106 0 106 30 0 c20 0 30
-5 30 -15 0 -19 19 -19 26 0 8 21 21 19 27 -5 6 -24 27 -27 27 -4 0 13 10 15
65 9 55 -6 69 -5 85 10 11 10 20 24 20 31 0 6 -70 49 -155 95 l-155 83 0 50
c0 55 -29 116 -54 116 -8 0 -22 -7 -31 -17z m55 -23 c0 -5 -14 -10 -31 -10
-17 0 -28 4 -24 10 3 6 17 10 31 10 13 0 24 -4 24 -10z m-86 -207 l6 -43 -70
0 c-38 0 -70 4 -70 8 0 7 122 84 126 79 1 -1 4 -21 8 -44z m191 10 c36 -21 65
-41 65 -45 0 -5 -31 -8 -70 -8 l-70 0 0 45 c0 25 3 45 6 45 3 0 34 -17 69 -37z
m-165 -414 c0 -14 -7 -19 -25 -19 -25 0 -25 1 -9 25 18 27 34 25 34 -6z m120
-11 c0 -4 -12 -8 -26 -8 -20 0 -25 4 -20 16 3 9 6 20 6 26 0 6 9 3 20 -7 11
-10 20 -22 20 -27z"/>
</g>
</svg>
