<?xml version="1.0" standalone="no"?>
<!DOCTYPE svg PUBLIC "-//W3C//DTD SVG 20010904//EN"
 "http://www.w3.org/TR/2001/REC-SVG-20010904/DTD/svg10.dtd">
<svg version="1.0" xmlns="http://www.w3.org/2000/svg"
 width="399.000000pt" height="149.000000pt" viewBox="0 0 399.000000 149.000000"
 preserveAspectRatio="xMidYMid meet">

<g transform="translate(0.000000,149.000000) scale(0.100000,-0.100000)"
fill="#000000" stroke="none">
<path d="M277 1444 c-8 -8 1 -24 14 -24 5 0 9 7 9 15 0 15 -12 20 -23 9z"/>
<path d="M730 1411 c-52 -21 -162 -66 -244 -100 -82 -34 -159 -63 -170 -65
-52 -9 -316 -121 -316 -134 0 -15 5 -14 124 29 44 16 81 27 83 26 2 -2 -41
-21 -95 -42 -109 -42 -115 -46 -110 -68 2 -13 30 -6 153 42 176 68 456 191
607 267 80 40 106 58 102 69 -9 22 -29 19 -134 -24z m-480 -231 c-8 -5 -19
-10 -25 -10 -5 0 -3 5 5 10 8 5 20 10 25 10 6 0 3 -5 -5 -10z"/>
<path d="M190 1409 c-19 -4 -43 -6 -52 -3 -10 3 -45 -2 -78 -12 -52 -14 -60
-20 -60 -40 0 -28 0 -28 65 -8 59 18 125 33 125 29 0 -8 -118 -63 -124 -58 -3
4 -6 1 -6 -6 0 -7 -4 -9 -10 -6 -5 3 -10 1 -10 -5 0 -6 -4 -9 -8 -6 -16 10
-34 -12 -30 -37 l3 -26 105 58 c58 33 117 70 132 83 51 43 30 57 -52 37z"/>
<path d="M1210 1336 c-124 -48 -435 -180 -560 -239 -132 -61 -513 -207 -538
-207 -4 0 35 23 86 51 51 27 97 47 104 43 6 -4 8 -3 5 3 -4 6 0 14 9 17 9 4
13 2 8 -5 -4 -8 0 -7 15 0 11 7 21 14 21 17 0 3 -4 2 -10 -1 -5 -3 -10 -2 -10
4 0 12 79 55 87 47 3 -2 -9 -12 -26 -21 -17 -8 -31 -18 -31 -20 0 -6 51 13 65
24 5 5 67 38 138 75 120 62 301 167 321 186 14 14 -13 40 -40 40 -14 0 -32 -4
-42 -9 -36 -20 -563 -246 -684 -293 -101 -40 -128 -54 -128 -69 0 -11 2 -19 5
-19 13 0 325 117 444 167 75 31 147 57 161 59 14 1 34 5 45 9 11 3 2 -5 -20
-20 -49 -32 -198 -106 -203 -100 -2 2 19 15 47 29 28 15 51 29 51 32 0 3 -42
-18 -92 -46 -97 -53 -191 -100 -343 -168 -87 -39 -90 -41 -93 -76 l-3 -36 63
24 c534 201 709 270 893 351 72 31 149 66 173 76 23 10 42 17 42 15 0 -7 -121
-72 -468 -250 -319 -164 -424 -214 -625 -296 l-77 -32 0 -63 0 -63 87 33 c146
54 787 322 858 358 52 26 295 127 295 122 0 -5 -227 -142 -340 -205 -145 -81
-583 -295 -673 -330 -45 -17 -114 -45 -154 -63 -65 -29 -73 -35 -73 -60 0 -27
2 -28 32 -22 65 14 407 126 627 204 124 45 229 81 234 81 4 0 97 34 204 75
292 112 273 98 -102 -70 -82 -38 -246 -115 -364 -171 -118 -57 -220 -104 -226
-104 -19 0 -25 -26 -11 -45 12 -16 23 -14 157 35 285 103 390 145 767 307 211
90 398 166 415 170 l32 5 -35 -26 c-19 -15 -40 -24 -48 -21 -7 2 -30 -6 -50
-19 -123 -77 -674 -354 -996 -501 -133 -61 -196 -107 -196 -144 0 -11 2 -21 4
-21 32 0 553 208 638 254 64 35 262 116 284 116 6 0 72 25 145 56 74 31 141
58 149 60 37 12 -313 -163 -610 -303 -405 -192 -408 -194 -423 -212 -10 -12
-2 -13 58 -9 104 8 439 136 905 348 326 148 420 189 420 184 0 -3 -26 -17 -57
-31 -32 -15 -96 -49 -143 -76 -98 -57 -220 -119 -220 -113 0 3 -69 -30 -152
-72 -165 -83 -296 -140 -453 -198 -144 -53 -229 -94 -217 -106 24 -24 97 -20
197 10 241 73 670 236 915 346 79 37 140 62 135 57 -6 -5 -68 -40 -140 -79
-264 -141 -473 -240 -595 -281 -69 -23 -131 -45 -139 -50 -14 -9 -7 -51 9 -51
18 0 145 51 250 100 58 27 164 70 235 96 166 59 540 206 594 234 54 27 99 44
86 32 -37 -36 -488 -283 -550 -302 -98 -30 -195 -73 -195 -85 0 -40 9 -44 63
-28 29 8 69 24 89 34 21 11 109 44 195 75 217 77 383 142 411 160 28 19 184
86 188 81 4 -3 -99 -65 -301 -180 -77 -43 -141 -80 -143 -82 -5 -5 10 -35 18
-35 16 0 484 202 672 290 162 76 424 211 641 330 31 17 57 29 57 27 0 -12
-571 -384 -797 -521 -42 -25 -60 -41 -56 -51 3 -8 9 -15 14 -15 13 0 381 178
489 236 169 91 515 286 525 296 23 22 -316 -142 -507 -246 -60 -32 -108 -55
-108 -52 0 3 80 58 177 123 242 159 369 252 428 313 l50 52 -42 -5 c-28 -3
-104 -40 -230 -110 -299 -166 -916 -467 -930 -454 -2 2 142 91 319 197 264
157 372 224 416 255 6 5 -11 35 -21 35 -5 0 -53 -27 -106 -59 -53 -33 -125
-73 -161 -89 -36 -17 -169 -80 -295 -141 -231 -110 -465 -214 -471 -209 -1 2
63 43 144 92 214 130 442 279 442 291 -1 39 -20 33 -201 -59 -101 -52 -242
-120 -314 -151 -174 -76 -418 -176 -421 -172 -5 4 225 131 283 155 30 13 95
48 144 78 83 52 88 56 77 78 l-10 24 -52 -18 c-28 -9 -181 -81 -339 -160 -159
-78 -299 -143 -312 -144 -13 0 -21 -4 -19 -7 6 -11 -414 -159 -450 -159 -6 0
61 33 149 73 257 117 444 211 439 219 -3 4 1 5 9 2 8 -3 28 7 43 21 16 14 116
75 222 135 106 61 214 124 238 142 38 27 42 33 27 39 -37 15 -67 8 -186 -47
-254 -117 -590 -264 -595 -260 -2 3 34 24 79 47 46 23 134 70 195 105 62 35
115 64 119 64 3 0 38 19 76 42 75 44 77 58 6 58 -25 0 -77 -18 -150 -51 -149
-68 -275 -121 -367 -154 -41 -15 -115 -45 -165 -66 -147 -62 -318 -129 -322
-126 -1 2 102 56 230 121 127 65 237 123 243 128 7 5 22 11 34 13 26 5 291
153 350 196 44 32 80 83 80 113 0 16 -5 18 -42 12 -45 -7 -246 -73 -263 -85
-10 -8 -207 -98 -235 -108 -8 -2 64 37 160 87 96 51 177 94 179 96 2 2 -4 13
-15 25 -28 31 -55 23 -349 -95 -143 -57 -312 -121 -375 -142 -63 -20 -196 -66
-294 -100 -99 -35 -181 -62 -183 -60 -2 1 88 47 199 100 283 136 563 297 772
444 l59 42 -37 15 c-35 15 -39 14 -99 -14 -210 -98 -295 -133 -331 -136 -11
-1 -22 -7 -24 -13 -2 -6 -10 -8 -19 -5 -12 5 -14 3 -8 -7 6 -10 4 -12 -8 -7
-10 3 -17 2 -17 -4 0 -6 -4 -8 -9 -5 -13 8 -42 -4 -35 -15 3 -5 -2 -6 -10 -3
-9 3 -16 1 -16 -6 0 -6 -4 -9 -9 -6 -14 9 -42 -5 -34 -17 3 -6 1 -7 -5 -3 -6
3 -69 -18 -139 -47 -70 -30 -154 -62 -186 -71 -35 -10 -55 -21 -51 -27 4 -8
-1 -9 -16 -4 -15 5 -20 4 -16 -4 4 -6 2 -9 -7 -5 -7 2 -35 -4 -62 -16 -26 -11
-50 -19 -52 -17 -2 2 53 28 122 57 69 28 125 56 125 60 0 5 69 44 153 88 83
44 227 120 319 171 91 50 171 91 177 91 17 0 78 58 100 95 25 43 20 43 -89 1z
m-905 -584 c-3 -3 -11 0 -18 7 -9 10 -8 11 6 5 10 -3 15 -9 12 -12z m-56 -16
c-9 -9 -112 -46 -116 -42 -2 2 20 13 49 25 51 19 76 26 67 17z"/>
<path d="M148 1292 c-48 -26 -91 -52 -95 -57 -9 -10 168 84 182 96 17 16 0 9
-87 -39z"/>
<path d="M568 1164 c-39 -21 -35 -28 5 -8 37 19 44 24 31 24 -5 -1 -21 -8 -36
-16z"/>
<path d="M3899 853 c-13 -16 -12 -17 4 -4 16 13 21 21 13 21 -2 0 -10 -8 -17
-17z"/>
</g>
</svg>
