<?xml version="1.0" standalone="no"?>
<!DOCTYPE svg PUBLIC "-//W3C//DTD SVG 20010904//EN"
 "http://www.w3.org/TR/2001/REC-SVG-20010904/DTD/svg10.dtd">
<svg version="1.0" xmlns="http://www.w3.org/2000/svg"
 width="73.000000pt" height="74.000000pt" viewBox="0 0 73.000000 74.000000"
 preserveAspectRatio="xMidYMid meet">

<g transform="translate(0.000000,74.000000) scale(0.100000,-0.100000)"
fill="#000000" stroke="none">
<path d="M343 732 c-20 -12 -43 -78 -43 -120 l0 -39 -150 -87 c-82 -48 -150
-92 -150 -97 0 -5 9 -18 21 -30 21 -21 47 -22 117 -3 16 5 22 2 22 -10 0 -9 7
-16 15 -16 8 0 15 9 15 20 0 11 7 20 15 20 8 0 15 -7 15 -15 0 -8 7 -15 15
-15 8 0 15 7 15 15 0 10 10 15 29 15 l28 0 7 -106 7 -105 -45 -54 c-48 -55
-59 -82 -29 -71 9 4 36 10 59 13 39 5 42 4 49 -23 l7 -29 15 31 15 31 59 -12
c73 -15 75 -8 14 62 l-45 51 0 106 0 106 30 0 c20 0 30 -5 30 -15 0 -19 19
-19 26 0 8 21 21 19 27 -5 6 -24 27 -27 27 -4 0 13 10 15 65 9 55 -6 69 -5 85
10 11 10 20 23 20 30 0 6 -70 49 -155 95 l-155 84 0 42 c0 53 -17 102 -40 114
-22 12 -22 12 -37 2z m47 -32 c0 -5 -14 -10 -31 -10 -17 0 -28 4 -24 10 3 6
17 10 31 10 13 0 24 -4 24 -10z m-81 -232 c1 -16 -9 -18 -69 -18 -38 0 -70 4
-70 8 0 4 28 24 63 45 l62 37 6 -28 c4 -15 7 -35 8 -44z m188 35 c34 -21 63
-41 63 -45 0 -5 -31 -8 -70 -8 l-70 0 0 45 c0 25 3 45 7 45 4 0 35 -17 70 -37z
m-167 -414 c0 -14 -7 -19 -25 -19 -25 0 -25 1 -9 25 18 27 34 25 34 -6z m120
-11 c0 -4 -12 -8 -26 -8 -20 0 -25 4 -20 16 3 9 6 20 6 26 0 6 9 3 20 -7 11
-10 20 -22 20 -27z"/>
</g>
</svg>
