<?xml version="1.0" standalone="no"?>
<!DOCTYPE svg PUBLIC "-//W3C//DTD SVG 20010904//EN"
 "http://www.w3.org/TR/2001/REC-SVG-20010904/DTD/svg10.dtd">
<svg version="1.0" xmlns="http://www.w3.org/2000/svg"
 width="86.000000pt" height="76.000000pt" viewBox="0 0 86.000000 76.000000"
 preserveAspectRatio="xMidYMid meet">

<g transform="translate(0.000000,76.000000) scale(0.100000,-0.100000)"
fill="#000000" stroke="none">
<path d="M58 744 c-55 -29 -58 -46 -58 -364 0 -320 3 -335 60 -365 43 -22 697
-22 740 0 57 30 60 45 60 365 0 320 -3 335 -60 365 -43 22 -701 22 -742 -1z
m725 -25 c44 -20 47 -43 47 -339 0 -296 -3 -319 -47 -339 -33 -15 -673 -15
-706 0 -44 20 -47 43 -47 339 0 292 4 319 44 338 30 15 677 16 709 1z"/>
<path d="M327 462 l-87 -87 88 -88 c69 -69 90 -85 100 -75 10 10 -3 26 -60 80
l-73 67 158 1 c133 0 157 2 157 15 0 13 -24 15 -157 15 l-158 1 73 67 c61 56
71 70 60 80 -11 9 -31 -6 -101 -76z"/>
</g>
</svg>
