<?xml version="1.0" standalone="no"?>
<!DOCTYPE svg PUBLIC "-//W3C//DTD SVG 20010904//EN"
 "http://www.w3.org/TR/2001/REC-SVG-20010904/DTD/svg10.dtd">
<svg version="1.0" xmlns="http://www.w3.org/2000/svg"
 width="71.000000pt" height="254.000000pt" viewBox="0 0 71.000000 254.000000"
 preserveAspectRatio="xMidYMid meet">

<g transform="translate(0.000000,254.000000) scale(0.100000,-0.100000)"
fill="#000000" stroke="none">
<path d="M577 2488 c-13 -40 -16 -43 -51 -44 -21 0 -41 -7 -46 -14 -7 -12 -11
-11 -26 1 -20 16 -53 13 -69 -6 -14 -18 -63 -8 -76 16 -5 11 -15 19 -22 19 -7
0 -23 14 -35 30 -25 33 -43 38 -62 15 -7 -8 -20 -15 -28 -15 -9 0 -25 -11 -37
-25 -16 -19 -31 -25 -69 -27 l-48 -3 6 -135 c3 -74 19 -574 36 -1110 17 -536
33 -1003 36 -1038 5 -60 7 -63 23 -48 10 9 29 16 43 16 15 0 28 5 30 11 6 19
77 -31 109 -77 16 -24 36 -44 43 -44 8 0 19 20 25 44 6 25 15 48 21 51 18 11
83 15 94 6 7 -6 31 -11 55 -12 35 -3 45 -8 57 -31 16 -32 34 -37 34 -10 1 9
14 35 30 57 16 22 35 51 42 64 10 18 6 226 -21 1035 -46 1428 -41 1316 -62
1316 -12 0 -22 -14 -32 -42z"/>
</g>
</svg>
