<?xml version="1.0" standalone="no"?>
<!DOCTYPE svg PUBLIC "-//W3C//DTD SVG 20010904//EN"
 "http://www.w3.org/TR/2001/REC-SVG-20010904/DTD/svg10.dtd">
<svg version="1.0" xmlns="http://www.w3.org/2000/svg"
 width="86.000000pt" height="76.000000pt" viewBox="0 0 86.000000 76.000000"
 preserveAspectRatio="xMidYMid meet">

<g transform="translate(0.000000,76.000000) scale(0.100000,-0.100000)"
fill="#000000" stroke="none">
<path d="M58 744 c-55 -29 -58 -46 -58 -364 0 -320 3 -335 60 -365 43 -22 697
-22 740 0 57 30 60 45 60 365 0 320 -3 335 -60 365 -43 22 -701 22 -742 -1z
m725 -25 c14 -6 30 -22 36 -36 15 -33 15 -573 0 -606 -20 -45 -41 -47 -395
-47 l-336 0 -29 29 -29 29 0 292 0 292 29 29 29 29 336 0 c224 0 343 -4 359
-11z"/>
<path d="M432 538 c-10 -10 3 -27 65 -85 l78 -72 -162 -1 c-138 0 -163 -2
-163 -15 0 -13 24 -15 153 -15 l152 -1 -69 -62 c-56 -52 -66 -65 -54 -75 11
-9 31 5 101 76 l87 87 -88 88 c-70 70 -90 85 -100 75z"/>
</g>
</svg>
